<svg width="291" height="197" viewBox="0 0 291 197" fill="none" xmlns="http://www.w3.org/2000/svg">
<path d="M254.605 193.192C261.337 193.712 275.201 190.672 285.163 183.544C288.322 181.293 288.151 176.233 285.065 171.113C281.98 165.993 270.576 146.791 269.049 137.8C267.522 128.81 269.083 109.935 253.46 76.1905C228.167 25.0882 163.161 -8.4115 106.099 8.61279C49.0362 25.6371 28.5911 84.5289 24.1324 89.9941C19.6737 95.4593 2.06852 97.4551 3.70551 103.587C4.88632 108.01 15.1939 118.662 36.2204 128.848C61.0626 140.883 106.979 161.811 155.997 165.714C205.857 169.683 208.856 172.556 218.175 181.484L218.367 181.667C226.359 189.321 243.873 192.364 254.605 193.192Z" fill="#3E671A" stroke="black" style="fill:#3E671A;fill:color(display-p3 0.2431 0.4039 0.1020);fill-opacity:1;stroke:black;stroke-opacity:1;" stroke-width="7" stroke-linecap="round" stroke-linejoin="round"/>
<path d="M47.8915 115.243C29.6019 106.127 26.4589 94.7866 27.1736 90.2558C25.0765 93.016 11.0827 98.0987 4.34786 100.295C5.42419 102.478 8.70036 108.292 13.1945 114.087C18.8121 121.331 50.3328 133.32 57.244 136.695C64.1553 140.07 73.1572 129.192 72.9991 125.907C72.8409 122.621 70.7536 126.639 47.8915 115.243Z" fill="#2C4A10" style="fill:#2C4A10;fill:color(display-p3 0.1725 0.2902 0.0627);fill-opacity:1;"/>
<path d="M185.623 30.136C156.786 13.2145 96.8545 16.4968 85.942 20.6313C81.3375 18.7621 84.306 11.1004 123.691 5.75892C175.14 -1.21859 218.966 26.9442 235.627 41.1033C252.288 55.2624 268.511 86.8792 273.461 128.369C275.525 145.668 278.874 159.015 281.962 164.421C284.432 168.745 286.787 177.53 287.656 181.381L281.448 186.274C276.549 191.885 246.835 196.506 236.618 190.07C210.406 173.556 231.999 157.537 227.642 125.419C223.286 93.301 221.669 51.2878 185.623 30.136Z" fill="#2C4A10" style="fill:#2C4A10;fill:color(display-p3 0.1725 0.2902 0.0627);fill-opacity:1;"/>
<path d="M254.607 193.192C261.339 193.712 275.202 190.672 285.165 183.544C288.324 181.293 288.153 176.233 285.067 171.113C281.981 165.993 275.88 146.797 274.354 137.806C272.827 128.815 274.855 107.418 259.231 73.674C233.939 22.5717 163.163 -8.41147 106.1 8.61282C49.0378 25.6371 28.5927 84.529 24.134 89.9941C19.6754 95.4593 2.07014 97.4552 3.70713 103.587C4.88794 108.01 15.1955 118.662 36.222 128.848C61.0642 140.883 106.981 161.812 155.999 165.714C205.858 169.683 208.858 172.556 218.177 181.484L218.368 181.667C226.36 189.322 243.874 192.364 254.607 193.192Z" stroke="black" style="stroke:black;stroke-opacity:1;" stroke-width="7" stroke-linecap="round" stroke-linejoin="round"/>
<path d="M271.625 172.769C271.625 172.769 260.349 177.706 248.018 173.625C220.921 164.657 234.277 147.828 172.684 141.844M28.3008 99.3936C36.218 107.238 55.2214 121.817 70.0733 124.787" stroke="black" style="stroke:black;stroke-opacity:1;" stroke-width="7" stroke-linecap="round" stroke-linejoin="round"/>
<path d="M85.0189 105.378L90.7837 80.7538C91.3018 78.6063 92.5731 72.5945 95.0101 62.5724C97.4471 52.5503 97.7087 52.2625 99.2941 51.8213C100.879 51.3802 102.865 51.3647 110.416 51.7341C118.087 52.1094 143.532 59.3462 147.644 71.7335C151.713 83.9909 143.175 92.9176 132.871 95.7136C125.106 97.8204 111.445 98.5017 105.352 98.2161C104.572 100.032 102.49 104.669 100.403 108.687C97.7947 113.709 96.7435 114.717 94.89 114.732C93.0365 114.746 89.9881 114.341 85.8634 111.802C83.0279 110.056 84.2844 107.384 85.0189 105.378Z" fill="#FBCB4F" style="fill:#FBCB4F;fill:color(display-p3 0.9843 0.7961 0.3098);fill-opacity:1;"/>
<path d="M108.384 79.3284C109.223 78.1786 111.185 70.6848 111.864 67.1547C113.545 67.6654 117.385 68.8547 120.365 70.6604C124.09 72.9176 126.501 79.9498 121.113 81.6578C116.491 83.1231 111.088 80.7362 108.384 79.3284Z" fill="#3E671A" style="fill:#3E671A;fill:color(display-p3 0.2431 0.4039 0.1020);fill-opacity:1;"/>
</svg>
